<svg width="24" height="24" viewBox="0 0 24 24" fill="none" xmlns="http://www.w3.org/2000/svg">
<path fill-rule="evenodd" clip-rule="evenodd" d="M16.676 2.62805C13.5298 1.92477 10.2672 1.92477 7.121 2.62805L6.782 2.70305C5.89702 2.90091 5.08421 3.34023 4.43387 3.97221C3.78353 4.60419 3.32112 5.40409 3.098 6.28305C2.3005 9.42557 2.3005 12.7175 3.098 15.86C3.31078 16.6983 3.74141 17.4654 4.34623 18.0836C4.95106 18.7018 5.70858 19.149 6.542 19.38L7.007 22.156C7.02184 22.2442 7.06005 22.3268 7.11763 22.3951C7.17522 22.4635 7.25008 22.5152 7.33442 22.5448C7.41877 22.5744 7.50951 22.5809 7.59719 22.5635C7.68488 22.5461 7.76631 22.5056 7.833 22.446L10.564 20.003C12.6141 20.1282 14.6716 19.9642 16.676 19.516L17.016 19.441C17.901 19.2432 18.7138 18.8039 19.3641 18.1719C20.0145 17.5399 20.4769 16.74 20.7 15.861C21.4974 12.7185 21.4974 9.42658 20.7 6.28405C20.4768 5.40496 20.0142 4.60498 19.3637 3.97298C18.7132 3.34099 17.9002 2.90174 17.015 2.70405L16.676 2.62805ZM7.965 6.20205C7.77915 6.17499 7.58963 6.2124 7.428 6.30805H7.414C7.039 6.52805 6.701 6.80505 6.413 7.13105C6.173 7.40805 6.043 7.68805 6.009 7.95805C5.989 8.11805 6.003 8.28005 6.05 8.43304L6.068 8.44305C6.338 9.23604 6.69 9.99904 7.12 10.717C7.67445 11.7255 8.35675 12.6582 9.15 13.492L9.174 13.526L9.212 13.554L9.235 13.581L9.263 13.605C10.0997 14.4007 11.0346 15.0862 12.045 15.645C13.2 16.274 13.901 16.571 14.322 16.695V16.701C14.445 16.739 14.557 16.756 14.67 16.756C15.0285 16.7295 15.3679 16.5838 15.634 16.342C15.959 16.054 16.234 15.715 16.448 15.338V15.331C16.649 14.951 16.581 14.593 16.291 14.35C15.7085 13.8411 15.0786 13.389 14.41 13C13.962 12.757 13.507 12.904 13.323 13.15L12.93 13.646C12.728 13.892 12.362 13.858 12.362 13.858L12.352 13.864C9.621 13.167 8.892 10.402 8.892 10.402C8.892 10.402 8.858 10.026 9.111 9.83404L9.603 9.43805C9.839 9.24605 10.003 8.79205 9.75 8.34405C9.36361 7.67481 8.91244 7.04512 8.403 6.46405C8.29189 6.32729 8.13607 6.23415 7.963 6.20105L7.965 6.20205ZM12.579 5.00005C12.4464 5.00005 12.3192 5.05272 12.2254 5.14649C12.1317 5.24026 12.079 5.36744 12.079 5.50005C12.079 5.63265 12.1317 5.75983 12.2254 5.8536C12.3192 5.94737 12.4464 6.00005 12.579 6.00005C13.844 6.00005 14.894 6.41305 15.725 7.20505C16.152 7.63805 16.485 8.15105 16.703 8.71305C16.922 9.27605 17.022 9.87704 16.996 10.479C16.9932 10.5447 17.0034 10.6103 17.026 10.672C17.0486 10.7337 17.0831 10.7904 17.1276 10.8387C17.2174 10.9365 17.3424 10.9945 17.475 11C17.6076 11.0056 17.737 10.9583 17.8347 10.8684C17.9324 10.7786 17.9904 10.6537 17.996 10.521C18.027 9.78053 17.9041 9.04163 17.635 8.35105C17.3647 7.65718 16.9549 7.02616 16.431 6.49705L16.421 6.48705C15.39 5.50205 14.085 5.00005 12.579 5.00005ZM12.545 6.64405C12.4124 6.64405 12.2852 6.69672 12.1914 6.79049C12.0977 6.88426 12.045 7.01144 12.045 7.14405C12.045 7.27665 12.0977 7.40383 12.1914 7.4976C12.2852 7.59137 12.4124 7.64405 12.545 7.64405H12.562C13.474 7.70905 14.138 8.01305 14.603 8.51205C15.08 9.02605 15.327 9.66504 15.308 10.455C15.3049 10.5877 15.3547 10.716 15.4463 10.812C15.5379 10.9079 15.6639 10.9635 15.7965 10.9665C15.9291 10.9696 16.0575 10.9198 16.1534 10.8282C16.2493 10.7366 16.305 10.6107 16.308 10.478C16.332 9.44104 15.998 8.54605 15.336 7.83205V7.83005C14.659 7.10405 13.73 6.72005 12.612 6.64505L12.595 6.64305L12.545 6.64405ZM12.526 8.31905C12.4591 8.31314 12.3917 8.32078 12.3278 8.34151C12.2639 8.36223 12.2048 8.39562 12.1541 8.43968C12.1034 8.48374 12.0621 8.53757 12.0326 8.59794C12.0032 8.65832 11.9862 8.72401 11.9827 8.79109C11.9792 8.85818 11.9893 8.92528 12.0123 8.98839C12.0353 9.0515 12.0708 9.10932 12.1167 9.15841C12.1625 9.2075 12.2178 9.24685 12.2792 9.2741C12.3406 9.30136 12.4068 9.31596 12.474 9.31705C12.892 9.33905 13.159 9.46504 13.327 9.63405C13.496 9.80405 13.622 10.077 13.645 10.504C13.6462 10.5711 13.661 10.6373 13.6884 10.6986C13.7157 10.7599 13.7551 10.815 13.8043 10.8607C13.8534 10.9065 13.9112 10.9418 13.9743 10.9647C14.0374 10.9876 14.1044 10.9976 14.1714 10.994C14.2384 10.9905 14.3041 10.9735 14.3644 10.944C14.4247 10.9146 14.4784 10.8733 14.5224 10.8226C14.5664 10.7719 14.5998 10.7129 14.6205 10.6491C14.6412 10.5852 14.6489 10.5179 14.643 10.451C14.611 9.85105 14.423 9.32104 14.038 8.93105C13.651 8.54105 13.124 8.35105 12.526 8.31905Z" fill="#404040"/>
</svg>
