<svg width="20" height="20" viewBox="0 0 20 20" fill="none" xmlns="http://www.w3.org/2000/svg">
<path d="M13.1487 10.6002C13.2659 10.4831 13.3319 10.3242 13.332 10.1585V9.84187C13.3301 9.67652 13.2644 9.5183 13.1487 9.4002L8.86536 5.1252C8.78713 5.04632 8.68063 5.00195 8.56953 5.00195C8.45843 5.00195 8.35193 5.04632 8.2737 5.1252L7.68203 5.71687C7.60364 5.79367 7.55947 5.89879 7.55947 6.00854C7.55947 6.11828 7.60364 6.2234 7.68203 6.3002L11.3904 10.0002L7.68203 13.7002C7.60315 13.7784 7.55878 13.8849 7.55878 13.996C7.55878 14.1071 7.60315 14.2136 7.68203 14.2919L8.2737 14.8752C8.35193 14.9541 8.45843 14.9985 8.56953 14.9985C8.68063 14.9985 8.78713 14.9541 8.86536 14.8752L13.1487 10.6002Z" fill="#404040"/>
</svg>
