<svg width="20" height="20" viewBox="0 0 20 20" fill="none" xmlns="http://www.w3.org/2000/svg">
<g clip-path="url(#clip0_2045_702)">
<path d="M5.8335 8.33331V18.3333" stroke="white" stroke-width="2" stroke-linecap="round" stroke-linejoin="round"/>
<path d="M12.4998 4.90002L11.6665 8.33335H16.5248C16.7836 8.33335 17.0388 8.3936 17.2702 8.50931C17.5016 8.62502 17.7029 8.79303 17.8582 9.00002C18.0134 9.20701 18.1183 9.44731 18.1646 9.70188C18.2109 9.95645 18.1973 10.2183 18.1248 10.4667L16.1832 17.1334C16.0822 17.4795 15.8717 17.7837 15.5832 18C15.2947 18.2164 14.9438 18.3334 14.5832 18.3334H3.33317C2.89114 18.3334 2.46722 18.1578 2.15466 17.8452C1.8421 17.5326 1.6665 17.1087 1.6665 16.6667V10C1.6665 9.55799 1.8421 9.13407 2.15466 8.82151C2.46722 8.50895 2.89114 8.33335 3.33317 8.33335H5.63317C5.94324 8.33319 6.24712 8.24653 6.51063 8.08312C6.77415 7.91971 6.98686 7.68603 7.12484 7.40835L9.99984 1.66669C10.3928 1.67155 10.7796 1.76516 11.1313 1.94052C11.4831 2.11587 11.7906 2.36844 12.031 2.67936C12.2714 2.99027 12.4384 3.35149 12.5196 3.73602C12.6008 4.12056 12.594 4.51847 12.4998 4.90002Z" stroke="white" stroke-width="2" stroke-linecap="round" stroke-linejoin="round"/>
</g>
<defs>
<clipPath id="clip0_2045_702">
<rect width="20" height="20" fill="white"/>
</clipPath>
</defs>
</svg>
