<svg width="20" height="20" viewBox="0 0 20 20" fill="none" xmlns="http://www.w3.org/2000/svg">
<path d="M6.8513 10.6002C6.73406 10.4831 6.66811 10.3242 6.66797 10.1585V9.84187C6.66989 9.67652 6.73557 9.5183 6.8513 9.4002L11.1346 5.1252C11.2129 5.04632 11.3194 5.00195 11.4305 5.00195C11.5416 5.00195 11.6481 5.04632 11.7263 5.1252L12.318 5.71687C12.3964 5.79367 12.4405 5.89879 12.4405 6.00854C12.4405 6.11828 12.3964 6.2234 12.318 6.3002L8.60964 10.0002L12.318 13.7002C12.3968 13.7784 12.4412 13.8849 12.4412 13.996C12.4412 14.1071 12.3968 14.2136 12.318 14.2919L11.7263 14.8752C11.6481 14.9541 11.5416 14.9985 11.4305 14.9985C11.3194 14.9985 11.2129 14.9541 11.1346 14.8752L6.8513 10.6002Z" fill="#404040"/>
</svg>
