<?xml version="1.0" encoding="utf-8"?><svg viewBox="0 0 24 24" xmlns="http://www.w3.org/2000/svg" xmlns:xlink="http://www.w3.org/1999/xlink"><style>:root>svg{display:none}:root>svg:target{display:block}</style><svg viewBox="0 0 20 20" id="arrow-left" xmlns="http://www.w3.org/2000/svg"><path d="M6.851 10.6a.625.625 0 01-.183-.441v-.317a.642.642 0 01.183-.442l4.284-4.275a.417.417 0 01.591 0l.592.592a.408.408 0 010 .583L8.61 10l3.708 3.7a.417.417 0 010 .592l-.592.583a.416.416 0 01-.591 0L6.85 10.6z"/></svg><svg viewBox="0 0 18 19" id="arrow-next" xmlns="http://www.w3.org/2000/svg"><path d="M1 9.15h16M9 17.15l8-8-8-8"/></svg><svg viewBox="0 0 18 19" id="arrow-prev" xmlns="http://www.w3.org/2000/svg"><path d="M17 9.15H1M9 1.15l-8 8 8 8"/></svg><svg viewBox="0 0 20 20" id="arrow-right" xmlns="http://www.w3.org/2000/svg"><path d="M13.149 10.6a.625.625 0 00.183-.441v-.317a.642.642 0 00-.183-.442L8.865 5.125a.417.417 0 00-.591 0l-.592.592a.408.408 0 000 .583L11.39 10l-3.708 3.7a.417.417 0 000 .592l.592.583a.417.417 0 00.591 0L13.15 10.6z"/></svg><svg viewBox="0 0 20 20" id="like-up" xmlns="http://www.w3.org/2000/svg"><g clip-path="url(#eclip0_2045_702)"><path d="M5.833 8.333v10M12.5 4.9l-.834 3.433h4.859a1.667 1.667 0 011.6 2.134l-1.942 6.666a1.667 1.667 0 01-1.6 1.2H3.333a1.667 1.667 0 01-1.667-1.666V10a1.667 1.667 0 011.667-1.667h2.3a1.667 1.667 0 001.492-.925L10 1.667A2.608 2.608 0 0112.5 4.9z"/></g><defs><clipPath id="eclip0_2045_702"><path d="M0 0h20v20H0z"/></clipPath></defs></svg><svg viewBox="0 0 20 20" id="search" xmlns="http://www.w3.org/2000/svg"><path d="M9.167 15.833a6.667 6.667 0 100-13.333 6.667 6.667 0 000 13.333zM17.5 17.5l-3.583-3.583"/></svg><svg viewBox="0 0 24 24" id="upload" xmlns="http://www.w3.org/2000/svg"><path d="M21 15v4a2 2 0 01-2 2H5a2 2 0 01-2-2v-4M17 8l-5-5-5 5M12 3v12"/></svg></svg>