<svg width="25" height="24" viewBox="0 0 25 24" fill="none" xmlns="http://www.w3.org/2000/svg">
<path d="M5 2.25V21.75H20V2.25H5ZM6.5 3.75H18.5V20.25H6.5V3.75ZM12.0545 7.758C11.8078 7.75547 11.5678 7.83812 11.375 7.992C11.1845 8.15325 11.0975 8.3535 11.0465 8.5545C10.9438 8.958 10.9738 9.3795 11.0705 9.8445C11.183 10.3883 11.5108 11.0445 11.7733 11.6722C11.6398 12.2445 11.6052 12.7485 11.3983 13.3358C11.222 13.8413 10.997 14.1307 10.7907 14.5785C10.3182 14.757 9.75575 14.8635 9.38375 15.0945C8.98325 15.3435 8.63225 15.6195 8.42375 16.0095C8.21375 16.3973 8.23625 16.947 8.516 17.3445C8.65475 17.5522 8.83625 17.7172 9.0785 17.8132C9.3215 17.9092 9.58475 17.913 9.806 17.8358C10.247 17.6842 10.5605 17.3445 10.8597 16.9462C11.1372 16.5772 11.336 15.9502 11.5872 15.4462C11.9653 15.3202 12.2382 15.1612 12.641 15.0712C13.064 14.9767 13.346 15.0225 13.7435 14.9775C13.9138 15.171 14.0585 15.48 14.2347 15.633C14.5925 15.9427 14.9847 16.1903 15.4535 16.218C15.923 16.248 16.391 15.9555 16.649 15.516H16.673V15.492C16.787 15.2917 16.8657 15.0773 16.8605 14.8358C16.856 14.5957 16.733 14.3453 16.5792 14.1803C16.2717 13.8502 15.8795 13.7677 15.4542 13.7115C15.128 13.6695 14.6705 13.7865 14.2828 13.806C13.9438 13.359 13.6055 13.0215 13.298 12.447C13.133 12.1365 13.0865 11.8717 12.947 11.556C13.0543 11.046 13.2695 10.479 13.298 10.0335C13.334 9.4935 13.313 9.0285 13.1578 8.60325C13.0787 8.37622 12.9416 8.17378 12.7603 8.016C12.5685 7.8568 12.3291 7.76625 12.08 7.75875H12.056L12.0545 7.758ZM12.5465 13.3125C12.6815 13.5495 12.848 13.7002 12.992 13.9222C12.7805 13.9598 12.62 13.9207 12.407 13.9688C12.3695 13.9762 12.3485 14.0062 12.3125 14.016C12.3552 13.8997 12.4115 13.8285 12.4535 13.7108C12.5015 13.5743 12.5015 13.4505 12.5465 13.3125ZM15.3125 14.835C15.5653 14.8688 15.6538 14.9152 15.6875 14.9295C15.6823 14.9415 15.6965 14.937 15.6875 14.9535C15.5953 15.1073 15.5825 15.0975 15.5225 15.0938C15.473 15.0907 15.2825 14.9873 15.1025 14.859C15.155 14.8635 15.2645 14.829 15.3125 14.8365V14.835ZM10.0625 16.008C10.0212 16.068 9.986 16.212 9.9455 16.2653C9.71675 16.5697 9.506 16.7122 9.4535 16.734C9.44375 16.7242 9.4685 16.734 9.4535 16.7115H9.4295C9.35225 16.6012 9.3755 16.6477 9.4295 16.5465C9.48425 16.446 9.662 16.245 9.9695 16.0545C9.992 16.041 10.0392 16.0215 10.0625 16.008Z" fill="white"/>
</svg>
